<svg width="971" height="284" viewBox="0 0 971 284" fill="none" xmlns="http://www.w3.org/2000/svg">
<path d="M772.056 15.7039C661.555 32.8918 615.023 236.147 447.401 237.085C279.772 238.022 211.898 135.508 122.739 133.085" stroke="#FCFCFC" stroke-width="2"/>
<path d="M551.953 8.27997C463.198 20.6439 440.75 171.514 285.457 180.112C130.165 188.711 88.3649 234.16 18.9614 234.712" stroke="#FCFCFC" stroke-width="2"/>
<path d="M858.746 1C729.105 10.8243 647.663 208.828 429.876 209.241C212.083 209.655 114.129 109.193 1 107.841" stroke="#FCFCFC" stroke-width="2"/>
<path d="M970.916 23.1696C831.731 32.8685 742.421 240.506 505.58 241.059C268.733 241.611 161.256 148.378 40.2384 147.459" stroke="#FCFCFC" stroke-width="2"/>
<path d="M926.641 23.815C803.472 27.6082 722.52 168.25 481.914 173.31C241.308 178.371 154.962 280.95 37.1875 282.51" stroke="#FCFCFC" stroke-width="2"/>
</svg>
